<svg width="175" height="90" viewBox="0 0 175 90" fill="none" xmlns="http://www.w3.org/2000/svg">
<path d="M0 36.7935C0 36.8793 0 36.969 0.00779925 37.0548V36.5322C0 36.618 0 36.7077 0 36.7935Z" fill="white"/>
<path d="M153.614 15.4153C151.61 15.4153 149.672 15.6922 147.831 16.2069C156.352 18.5857 162.72 26.1003 163.391 35.202C163.469 35.7206 163.515 36.251 163.515 36.793C163.515 37.3351 163.469 37.8654 163.391 38.3841C162.724 47.4858 156.352 55.0043 147.831 57.3792C149.672 57.8978 151.61 58.1708 153.614 58.1708C165.426 58.1708 175 48.5972 175 36.793C175 24.9889 165.426 15.4153 153.614 15.4153Z" fill="url(#paint0_linear_3312_434)"/>
<path d="M124.846 74.445C124.846 73.0451 124.655 71.688 124.292 70.4011C122.631 76.3559 117.374 80.8131 111.01 81.2772C110.647 81.3318 110.277 81.363 109.898 81.363C109.52 81.363 109.146 81.3318 108.787 81.2772C102.423 80.8092 97.1662 76.3559 95.5049 70.4011C95.1423 71.688 94.9512 73.0412 94.9512 74.445C94.9512 82.7044 101.643 89.3962 109.898 89.3962C118.154 89.3962 124.846 82.7044 124.846 74.445Z" fill="white"/>
<path d="M163.39 38.384C162.724 47.4857 156.352 55.0042 147.831 57.379C144.001 56.3066 140.609 54.1969 137.969 51.3697C134.775 47.9458 132.693 43.4652 132.307 38.5087C132.256 37.9472 132.236 37.3701 132.236 36.7929C132.236 36.2158 132.256 35.6386 132.307 35.0771C132.693 30.1206 134.775 25.6361 137.969 22.2122C140.609 19.3889 143.998 17.2831 147.831 16.2068C156.352 18.5856 162.72 26.1001 163.39 35.2019C162.626 30.4872 158.543 26.8879 153.614 26.8879C151.461 26.8879 149.461 27.582 147.839 28.7558C145.339 30.5496 143.705 33.4821 143.705 36.7968C143.705 40.1115 145.335 43.0362 147.839 44.8378C149.461 46.0116 151.461 46.698 153.614 46.698C158.543 46.698 162.622 43.0947 163.39 38.3879V38.384Z" fill="white"/>
<path d="M11.6133 38.384C12.2801 47.4857 18.6521 55.0042 27.1728 57.379C31.0022 56.3066 34.3949 54.1969 37.0349 51.3697C40.2287 47.9458 42.3111 43.4652 42.6972 38.5087C42.7479 37.9472 42.7674 37.3701 42.7674 36.7929C42.7674 36.2158 42.7479 35.6386 42.6972 35.0771C42.3111 30.1206 40.2287 25.6361 37.0349 22.2122C34.3949 19.3889 31.0061 17.2831 27.1728 16.2068C18.6521 18.5856 12.284 26.1001 11.6133 35.2019C12.3776 30.4872 16.4605 26.8879 21.3896 26.8879C23.5422 26.8879 25.5427 27.582 27.165 28.7558C29.6646 30.5496 31.2986 33.4821 31.2986 36.7968C31.2986 40.1037 29.6685 43.0362 27.165 44.8378C25.5427 46.0116 23.5422 46.698 21.3896 46.698C16.4605 46.698 12.3815 43.0947 11.6133 38.3879V38.384Z" fill="white"/>
<path d="M109.903 59.4853C109.786 59.4853 109.662 59.4853 109.541 59.4931C105.368 59.5867 101.617 61.3962 98.961 64.2429C96.473 66.9063 94.9561 70.494 94.9561 74.4326C94.9561 78.3712 96.473 81.9706 98.961 84.634C101.617 87.4808 105.368 89.2902 109.541 89.3877C109.658 89.3877 109.782 89.3877 109.903 89.3877C118.167 89.3877 124.854 82.692 124.854 74.4287C124.854 66.1654 118.167 59.4814 109.903 59.4814V59.4853ZM109.903 81.3584C109.779 81.3584 109.662 81.3584 109.541 81.3584C105.879 81.1673 102.974 78.1412 102.974 74.4365C102.974 70.7319 105.883 67.7175 109.541 67.5264C109.658 67.5264 109.775 67.5264 109.903 67.5264C113.729 67.5264 116.829 70.6149 116.829 74.4404C116.829 78.2659 113.729 81.3661 109.903 81.3661V81.3584Z" fill="#EEEEEE"/>
<path d="M126.181 17.1838C128.802 17.1838 130.927 15.059 130.927 12.438C130.927 9.81693 128.802 7.69214 126.181 7.69214C123.56 7.69214 121.435 9.81693 121.435 12.438C121.435 15.059 123.56 17.1838 126.181 17.1838Z" fill="#EEEEEE"/>
<path d="M65.4583 15.4153C59.293 15.4153 53.7204 18.0358 49.8169 22.2123C46.2566 26.0301 44.0806 31.1542 44.0806 36.7969C44.0806 42.4397 46.2566 47.5521 49.8169 51.3698C53.7204 55.5541 59.293 58.1747 65.4583 58.1747C77.2781 58.1747 86.8439 48.605 86.8439 36.7969C86.8439 24.9889 77.2781 15.4153 65.4583 15.4153ZM65.4583 46.6942C59.991 46.6942 55.5611 42.2564 55.5611 36.7969C55.5611 31.3375 59.991 26.888 65.4583 26.888C70.9256 26.888 75.3751 31.3258 75.3751 36.7969C75.3751 42.2681 70.9373 46.6942 65.4583 46.6942Z" fill="white"/>
<path d="M109.533 15.4153C103.363 15.4153 97.7986 18.0358 93.895 22.2123C90.3347 26.0301 88.1509 31.1542 88.1509 36.7969C88.1509 42.4397 90.3308 47.5521 93.895 51.3698C97.7986 55.5541 103.363 58.1747 109.533 58.1747C121.352 58.1747 130.922 48.605 130.922 36.7969C130.922 24.9889 121.352 15.4153 109.533 15.4153ZM109.533 46.6942C104.069 46.6942 99.6314 42.2564 99.6314 36.7969C99.6314 31.3375 104.069 26.888 109.533 26.888C114.996 26.888 119.445 31.3258 119.445 36.7969C119.445 42.2681 115.015 46.6942 109.533 46.6942Z" fill="white"/>
<path d="M21.3816 15.4152C18.8937 15.4152 16.5032 15.8403 14.2804 16.628V7.13631C14.2804 7.03492 14.2804 6.92963 14.2726 6.82824C14.1127 3.03391 10.9813 0 7.13631 0C3.29128 0 0.167684 3.03391 0.00779925 6.82824C0.00779925 6.92963 0 7.03492 0 7.13631C0 7.2377 0 7.34299 0.00779925 7.44049C0.00779925 7.48338 0.00779925 7.52628 0.0155985 7.56917V7.58867C0.0155985 7.61597 0.00779925 7.64717 0.00779925 7.67446V37.0542C0.0155985 38.2553 0.132587 39.4252 0.335368 40.5756C1.0685 44.7092 2.98711 48.4333 5.73635 51.3698C9.63987 55.5541 15.2124 58.1746 21.3816 58.1746C33.1975 58.1746 42.7711 48.6049 42.7711 36.7969C42.7711 24.9888 33.1975 15.4152 21.3816 15.4152ZM21.3816 46.6941C15.9105 46.6941 11.4805 42.2641 11.4805 36.7969C11.4805 31.3296 15.9105 26.8957 21.3816 26.8957C26.8528 26.8957 31.2945 31.3257 31.2945 36.7969C31.2945 42.268 26.8567 46.6941 21.3816 46.6941Z" fill="white"/>
<path d="M21.3929 58.1708C23.3973 58.1708 25.3354 57.8939 27.176 57.3792C18.6553 55.0004 12.2872 47.4858 11.6165 38.3841C11.5385 37.8654 11.4917 37.3351 11.4917 36.793C11.4917 36.251 11.5385 35.7206 11.6165 35.202C12.2833 26.1003 18.6553 18.5818 27.176 16.2069C25.3354 15.6883 23.3973 15.4153 21.3929 15.4153C9.5809 15.4114 0.00732422 24.985 0.00732422 36.7891C0.00732422 48.5933 9.5809 58.1669 21.3929 58.1669V58.1708Z" fill="url(#paint1_linear_3312_434)"/>
<defs>
<linearGradient id="paint0_linear_3312_434" x1="161.415" y1="15.4153" x2="161.415" y2="58.1708" gradientUnits="userSpaceOnUse">
<stop stop-color="white"/>
<stop offset="1" stop-color="#EEEEEE"/>
</linearGradient>
<linearGradient id="paint1_linear_3312_434" x1="13.5917" y1="15.4153" x2="13.5917" y2="58.1708" gradientUnits="userSpaceOnUse">
<stop stop-color="white"/>
<stop offset="1" stop-color="#EEEEEE"/>
</linearGradient>
</defs>
</svg>
