<svg width="22" height="23" viewBox="0 0 22 23" fill="none" xmlns="http://www.w3.org/2000/svg">
<mask id="mask0_3312_467" style="mask-type:luminance" maskUnits="userSpaceOnUse" x="0" y="0" width="22" height="23">
<path d="M22 0H0V23H22V0Z" fill="white"/>
</mask>
<g mask="url(#mask0_3312_467)">
<path fill-rule="evenodd" clip-rule="evenodd" d="M10.9798 4.68493e-05H11.4457C12.2616 4.68493e-05 12.9197 4.69238e-05 13.4543 0.0450469C13.9655 0.0698049 14.4668 0.200324 14.9293 0.429047C15.6381 0.806113 16.2144 1.40826 16.5755 2.14905C16.7939 2.63265 16.9185 3.15677 16.9418 3.69105C16.9849 4.24805 16.9849 4.93605 16.9849 5.79105V6.40905C17.4754 6.4677 17.9528 6.6131 18.3967 6.83905C19.2935 7.31725 20.0225 8.08003 20.479 9.01805C20.7567 9.6326 20.9142 10.299 20.942 10.978C20.9994 11.709 20.9994 12.618 20.9994 13.763V15.091C20.9994 16.237 20.9994 17.145 20.942 17.876C20.9136 18.5552 20.7566 19.2218 20.48 19.837C20.0228 20.7745 19.2936 21.5365 18.3967 22.014C17.8084 22.304 17.1707 22.4686 16.521 22.498C15.8217 22.558 14.9523 22.558 13.857 22.558H8.57035C7.47417 22.558 6.60565 22.558 5.90643 22.498C5.25706 22.4685 4.61979 22.3043 4.03165 22.015C3.13448 21.537 2.40518 20.7742 1.94835 19.836C1.67129 19.2209 1.51423 18.5543 1.48635 17.875C1.42896 17.144 1.42896 16.235 1.42896 15.09V13.762C1.42896 12.616 1.42896 11.708 1.48635 10.977C1.51458 10.2982 1.67163 9.63192 1.94835 9.01705C2.40518 8.07888 3.13448 7.31608 4.03165 6.83805C4.47511 6.61163 4.95223 6.46588 5.44252 6.40705V5.78905C5.44252 4.93605 5.44252 4.24805 5.48556 3.68905C5.50925 3.15471 5.63409 2.63059 5.85287 2.14705C6.21354 1.40604 6.7895 0.803544 7.49809 0.426047C7.96067 0.197645 8.462 0.0674646 8.97304 0.0430468C9.50583 -0.00195317 10.1639 -0.00195312 10.9817 -0.00195312L10.9798 4.68493e-05ZM15.4755 5.82305V6.30605C14.9972 6.29605 14.4597 6.29605 13.8494 6.29605H8.57035C7.96295 6.29605 7.42252 6.29605 6.94426 6.30605V5.82305C6.94426 4.92905 6.94426 4.30505 6.98252 3.82305C6.99108 3.49323 7.06161 3.1684 7.19009 2.86705C7.40721 2.42044 7.7546 2.05761 8.182 1.83105C8.47056 1.69663 8.7816 1.62289 9.09739 1.61405C9.5613 1.57505 10.1572 1.57405 11.0104 1.57405H11.4122C12.2683 1.57405 12.8642 1.57405 13.3252 1.61405C13.641 1.62318 13.952 1.6969 14.2406 1.83105C14.667 2.05685 15.0139 2.41816 15.2316 2.86305C15.3601 3.16472 15.4307 3.4899 15.4391 3.82005C15.4764 4.30505 15.4774 4.92905 15.4774 5.82305H15.4755ZM6.026 7.92305C5.57221 7.93711 5.12555 8.04484 4.71174 8.24005C4.09811 8.56696 3.59921 9.08853 3.28652 9.73005C3.10018 10.1628 2.99715 10.6297 2.9833 11.104C2.93165 11.765 2.93069 12.604 2.93069 13.796V15.056C2.93069 16.245 2.93069 17.088 2.9833 17.748C2.99675 18.2225 3.0998 18.6894 3.28652 19.122C3.59921 19.7636 4.09811 20.2851 4.71174 20.612C5.12568 20.8069 5.57226 20.9146 6.026 20.929C6.65826 20.983 7.46078 20.984 8.60095 20.984H13.8255C14.9628 20.984 15.7691 20.984 16.4004 20.929C16.8542 20.915 17.3009 20.8073 17.7147 20.612C18.3283 20.2851 18.8272 19.7636 19.1399 19.122C19.3263 18.6893 19.4293 18.2224 19.4431 17.748C19.4948 17.087 19.4957 16.248 19.4957 15.056V13.796C19.4957 12.607 19.4957 11.764 19.4431 11.104C19.4297 10.6296 19.3266 10.1627 19.1399 9.73005C18.8272 9.08853 18.3283 8.56696 17.7147 8.24005C17.3008 8.04524 16.8542 7.93752 16.4004 7.92305C15.7682 7.86905 14.9657 7.86805 13.8255 7.86805H8.60382C7.46748 7.86905 6.66017 7.86905 6.02887 7.92305H6.026ZM11.9631 13.376C11.9631 13.1673 11.8838 12.9671 11.7426 12.8196C11.6015 12.672 11.41 12.589 11.2103 12.589C11.0107 12.589 10.8192 12.672 10.678 12.8196C10.5369 12.9671 10.4576 13.1673 10.4576 13.376V15.476C10.4576 15.5794 10.477 15.6817 10.5149 15.7772C10.5527 15.8727 10.6081 15.9595 10.678 16.0325C10.748 16.1056 10.8309 16.1636 10.9223 16.2031C11.0136 16.2427 11.1115 16.263 11.2103 16.263C11.3092 16.263 11.4071 16.2427 11.4984 16.2031C11.5898 16.1636 11.6727 16.1056 11.7426 16.0325C11.8125 15.9595 11.868 15.8727 11.9058 15.7772C11.9437 15.6817 11.9631 15.5794 11.9631 15.476V13.376Z" fill="#F2F2F2"/>
</g>
</svg>
