<svg width="19" height="23" viewBox="0 0 19 23" fill="none" xmlns="http://www.w3.org/2000/svg">
<path fill-rule="evenodd" clip-rule="evenodd" d="M6.24773 5.09314C6.24773 4.40605 6.44985 3.73438 6.82855 3.16309C7.20724 2.59179 7.74548 2.14652 8.37522 1.88358C9.00496 1.62064 9.69791 1.55184 10.3664 1.68589C11.035 1.81993 11.649 2.1508 12.131 2.63665C12.613 3.1225 12.9412 3.7415 13.0742 4.41539C13.2072 5.08928 13.1389 5.78779 12.8781 6.42258C12.6173 7.05737 12.1755 7.59994 11.6088 7.98166C11.042 8.36339 10.3757 8.56714 9.69409 8.56714C8.78006 8.56714 7.90346 8.20113 7.25714 7.54963C6.61083 6.89813 6.24773 6.0145 6.24773 5.09314ZM9.69409 0.0151376C8.69787 0.0157309 7.7242 0.314055 6.89616 0.872393C6.06812 1.43073 5.42291 2.22401 5.04208 3.15195C4.66125 4.07988 4.56192 5.10081 4.75663 6.08564C4.95134 7.07048 5.43136 7.97501 6.136 8.68489C6.84064 9.39476 7.73825 9.87809 8.71537 10.0738C9.69249 10.2695 10.7052 10.1687 11.6256 9.78431C12.5459 9.39988 13.3325 8.74902 13.8859 7.91401C14.4393 7.079 14.7347 6.09734 14.7347 5.09314C14.7347 4.42603 14.6043 3.76547 14.3509 3.14918C14.0976 2.53289 13.7262 1.97296 13.2581 1.50139C12.79 1.02981 12.2343 0.655833 11.6228 0.400816C11.0113 0.145799 10.3559 0.0147435 9.69409 0.0151376ZM6.30229 12.8441C4.74128 12.8441 3.24421 13.4692 2.14041 14.5819C1.03661 15.6945 0.416504 17.2036 0.416504 18.7771C0.416504 19.8971 0.857885 20.9713 1.64355 21.7633C2.42921 22.5552 3.4948 23.0001 4.6059 23.0001H7.04335C7.25383 23.0001 7.4557 22.9159 7.60453 22.7658C7.75337 22.6158 7.83698 22.4123 7.83698 22.2001C7.83698 21.988 7.75337 21.7845 7.60453 21.6345C7.4557 21.4844 7.25383 21.4001 7.04335 21.4001H4.60392C3.91484 21.4001 3.25399 21.1242 2.76674 20.6331C2.27949 20.1419 2.00576 19.4757 2.00576 18.7811C2.00576 17.6327 2.45832 16.5314 3.26389 15.7194C4.06946 14.9073 5.16205 14.4511 6.3013 14.4511H13.0889C14.2281 14.4511 15.3207 14.9073 16.1263 15.7194C16.9318 16.5314 17.3844 17.6327 17.3844 18.7811C17.3844 19.4757 17.1107 20.1419 16.6234 20.6331C16.1362 21.1242 15.4753 21.4001 14.7862 21.4001H12.3458C12.1353 21.4001 11.9335 21.4844 11.7846 21.6345C11.6358 21.7845 11.5522 21.988 11.5522 22.2001C11.5522 22.4123 11.6358 22.6158 11.7846 22.7658C11.9335 22.9159 12.1353 23.0001 12.3458 23.0001H14.7852C15.8963 23.0001 16.9619 22.5552 17.7476 21.7633C18.5333 20.9713 18.9746 19.8971 18.9746 18.7771C18.9746 17.2036 18.3545 15.6945 17.2507 14.5819C16.1469 13.4692 14.6499 12.8441 13.0889 12.8441H6.30229Z" fill="#F2F2F2"/>
</svg>
