<svg width="22" height="22" viewBox="0 0 22 22" fill="none" xmlns="http://www.w3.org/2000/svg">
<path d="M15.6168 0H6.39419C2.38819 0 0 2.387 0 6.391V15.598C0 19.613 2.38819 22 6.39419 22H15.6058C19.6118 22 22 19.613 22 15.609V6.391C22.011 2.387 19.6228 0 15.6168 0ZM16.5082 17.017C14.6263 17.017 12.8654 16.203 11.4567 14.696C9.86091 16.137 7.78088 17.017 5.50274 17.017C5.05152 17.017 4.67733 16.643 4.67733 16.192C4.67733 15.741 5.05152 15.367 5.50274 15.367C9.32164 15.367 12.4802 12.342 12.8874 8.47H11.0055H5.51375C5.06252 8.47 4.68834 8.096 4.68834 7.645C4.68834 7.194 5.06252 6.831 5.51375 6.831H10.1801V5.808C10.1801 5.357 10.5543 4.983 11.0055 4.983C11.4567 4.983 11.8309 5.357 11.8309 5.808V6.831H13.6908C13.7128 6.831 13.7348 6.82 13.7569 6.82C13.7789 6.82 13.8009 6.831 13.8229 6.831H16.4972C16.9484 6.831 17.3226 7.205 17.3226 7.656C17.3226 8.107 16.9484 8.481 16.4972 8.481H14.5382C14.3732 10.362 13.6688 12.089 12.5903 13.497C13.6908 14.718 15.0665 15.378 16.5082 15.378C16.9594 15.378 17.3336 15.752 17.3336 16.203C17.3336 16.654 16.9594 17.017 16.5082 17.017Z" fill="white"/>
</svg>
